PathFileType	4	(X/Y/Z)	OpenSim_Sub01_EMGStiffKnee_Accel.trc
DataRate	CameraRate	NumFrames	NumMarkers	Units	OrigDataRate	OrigDataStartFrame	OrigNumFrames
100	100	21	8	m	100	1	5567
Frame#	Time	torso_imu_offset_imu	pelvis_imu_offset_imu	tibia_r_imu_offset_imu	femur_r_imu_offset_imu	tibia_l_imu_offset_imu	femur_l_imu_offset_imu	toes_r_imu_offset_imu	toes_l_imu_offset_imu
				X1	Y1	Z1	X2	Y2	Z2	X3	Y3	Z3	X4	Y4	Z4	X5	Y5	Z5	X6	Y6	Z6	X7	Y7	Z7	X8		Y8	Z8	

1	0	9.08658252	-0.67490696	6.30593120	9.65289693	0.78471593	2.11023087	9.69216624	1.64783285	1.09000349	9.65268533	1.02926690	0.79799338	9.53419894	-2.20166283	0.71373021	9.73081707	0.69810879	-0.85391829	5.43650306	-1.90279483	8.14951985	5.44821893	1.12606574	10.79640380
2	0.01000000	9.10573924	-0.71772058	6.30200238	9.64134831	0.78432478	2.11406020	9.71222112	1.65346745	1.07416283	9.65404094	1.03574369	0.83954646	9.57276628	-2.18406391	0.67204390	9.74284444	0.66600742	-0.80256444	5.43305475	-1.92039962	8.15131487	5.44663557	1.13412053	10.81220781
3	0.02000000	9.14826425	-0.76449748	6.29357914	9.63970590	0.78811661	2.10341842	9.74275027	1.65870664	1.07768524	9.67231001	1.04028841	0.90869907	9.59143697	-2.16429901	0.64667725	9.74526150	0.60587334	-0.74818221	5.42478815	-1.92909890	8.15258222	5.44334140	1.14217971	10.81479119
4	0.03000000	9.19229764	-0.81437950	6.28722191	9.64878622	0.79630939	2.08571596	9.77087598	1.66203900	1.10111647	9.70043659	1.03994358	0.97765738	9.58489716	-2.14462901	0.64357578	9.73603726	0.54954124	-0.71376039	5.41660364	-1.92638659	8.15400358	5.44003536	1.14933427	10.80337039
5	0.04000000	9.19947831	-0.86236732	6.28847577	9.66182883	0.81168133	2.08208920	9.77819226	1.65988583	1.13112556	9.71810471	1.03047748	1.00612644	9.56455495	-2.13066722	0.65699674	9.72501104	0.53123629	-0.71450209	5.41687115	-1.91967362	8.15779855	5.44122744	1.15383901	10.78934541
6	0.05000000	9.14869900	-0.90543408	6.30060184	9.67267133	0.83228111	2.10442384	9.75527805	1.64942574	1.15522849	9.71309395	1.01097770	0.97136270	9.54206488	-2.12666040	0.67988257	9.72012567	0.56980799	-0.75574293	5.42917735	-1.91415324	8.16438120	5.44863727	1.15413333	10.78164033
7	0.06000000	9.07138215	-0.94673051	6.32015222	9.67750740	0.84190839	2.13606880	9.71983287	1.63024554	1.16451854	9.69825275	0.99049207	0.90373077	9.52853579	-2.13253847	0.70216241	9.72278145	0.63823561	-0.81409319	5.44263074	-1.90767106	8.16868317	5.45547831	1.14926911	10.78089097
8	0.07000000	9.00677355	-0.98967581	6.34249420	9.67324707	0.82325456	2.15608061	9.69378404	1.60349186	1.15191247	9.69025279	0.97936919	0.84221863	9.53390616	-2.14722724	0.71357455	9.73280993	0.70128131	-0.86157926	5.44451582	-1.89708304	8.16520764	5.45408128	1.13879494	10.78609283
9	0.08000000	8.96586022	-1.02461612	6.36382674	9.66100053	0.78184761	2.15823378	9.68729202	1.58698894	1.12771557	9.69362206	0.97986632	0.80792623	9.55211263	-2.16656985	0.70933801	9.74466880	0.72765121	-0.88110531	5.43487794	-1.88476379	8.15721383	5.44710050	1.12799813	10.79462604
10	0.09000000	8.93787936	-1.03184190	6.38099062	9.64511111	0.74078996	2.14763390	9.70145571	1.61138366	1.11561100	9.70354022	0.98801147	0.80817838	9.56477881	-2.18403860	0.68889420	9.74868298	0.68910034	-0.86395693	5.42358372	-1.87733460	8.15469792	5.44513370	1.12657953	10.80262778
11	0.10000000	8.91659568	-1.00194542	6.39307359	9.62972883	0.71673640	2.13121853	9.73257409	1.68670006	1.12921765	9.71484249	0.99896498	0.84352015	9.56005266	-2.19597549	0.65618712	9.74044626	0.57451632	-0.81180677	5.41799156	-1.87935324	8.16329262	5.45399086	1.13897944	10.80704061
12	0.11000000	8.91088954	-0.95689857	6.40579083	9.61818215	0.70583965	2.12050261	9.76337630	1.76070283	1.15122672	9.72205503	1.00578521	0.89540402	9.54641013	-2.20743081	0.62821696	9.73152440	0.42346182	-0.75655124	5.41725626	-1.88892143	8.17514985	5.46464844	1.15366946	10.80729507
13	0.12000000	8.93126240	-0.92299290	6.42527918	9.61366151	0.70067606	2.12666047	9.77530183	1.77331862	1.15964063	9.71988899	1.00141502	0.94199706	9.53549152	-2.22487176	0.62330962	9.73561137	0.28379408	-0.73406617	5.41909887	-1.90280273	8.18040233	5.46607702	1.15705778	10.80345182
14	0.13000000	8.97065600	-0.90434510	6.44565001	9.61956469	0.69702570	2.14310680	9.76803326	1.71942915	1.14786332	9.70667772	0.98288439	0.96512544	9.53005007	-2.25187635	0.64350784	9.75406093	0.18729261	-0.75616024	5.42248133	-1.91559776	8.17626231	5.45826887	1.14885431	10.79811665
15	0.14000000	9.00849921	-0.88800644	6.45176401	9.63944578	0.69313552	2.14959127	9.75529344	1.63621831	1.12115664	9.68354525	0.95037264	0.94943973	9.52599891	-2.28979500	0.67831912	9.77872759	0.15334980	-0.81610896	5.42732051	-1.92024486	8.16539279	5.44969899	1.13900634	10.79585309
16	0.15000000	9.03003773	-0.86693204	6.43695722	9.67245553	0.68808854	2.13397042	9.74672580	1.55890929	1.08745625	9.65469432	0.90823267	0.88983012	9.52060404	-2.33533878	0.71634169	9.80165345	0.18711754	-0.89845784	5.43309481	-1.91330122	8.15169331	5.44665555	1.13473122	10.79923440
17	0.16000000	9.03883440	-0.85292422	6.42045651	9.70464858	0.68326374	2.10923418	9.73877891	1.51366568	1.06173653	9.63326251	0.87297817	0.81139711	9.51567432	-2.37160358	0.74443004	9.81616400	0.25238003	-0.96322846	5.43790672	-1.90220420	8.14232110	5.44828025	1.13435191	10.80477030
18	0.17000000	9.04132777	-0.86004687	6.42463935	9.72055331	0.68038664	2.09221776	9.72596568	1.52284176	1.05910499	9.63292235	0.86210372	0.74414135	9.51358976	-2.38027272	0.75013718	9.81617620	0.30651689	-0.96882811	5.43972540	-1.89596267	8.14438636	5.45238712	1.13465893	10.80803139
19	0.18000000	9.03631331	-0.88406392	6.44740027	9.71809015	0.68001705	2.08776329	9.71033776	1.57685589	1.07718882	9.65063263	0.87413904	0.70780971	9.51270908	-2.35955887	0.73629136	9.80090628	0.32551713	-0.91735276	5.43833091	-1.89700102	8.15528289	5.45669356	1.13411873	10.80731084
20	0.19000000	9.01670826	-0.90665686	6.46779142	9.70548808	0.68181797	2.09148098	9.69974855	1.64154562	1.10016145	9.67048925	0.89301619	0.71424694	9.50829758	-2.32040061	0.71747692	9.77365251	0.29970692	-0.84452696	5.43489741	-1.90267464	8.16492719	5.45884359	1.13248817	10.80299840
21	0.20000000	8.98252354	-0.91565929	6.47043836	9.69036078	0.68617306	2.09929045	9.70003452	1.68677545	1.11524405	9.68059604	0.90427671	0.76357962	9.49847160	-2.27624170	0.70484522	9.74130101	0.23521148	-0.78293670	5.43068120	-1.90985768	8.16620782	5.45780571	1.13000521	10.79655498
